<svg width="64" height="64" viewBox="0 0 64 64" fill="none" xmlns="http://www.w3.org/2000/svg">
<rect width="64" height="64" fill="#212121"/>
<path fill-rule="evenodd" clip-rule="evenodd" d="M26.1848 29.5364C28.0358 29.5364 29.5364 28.0358 29.5364 26.1848C29.5364 24.3338 28.0358 22.8333 26.1848 22.8333C24.3338 22.8333 22.8333 24.3338 22.8333 26.1848C22.8333 28.0358 24.3338 29.5364 26.1848 29.5364ZM26.1848 40.7083C28.0358 40.7083 29.5364 39.2077 29.5364 37.3567C29.5364 35.5057 28.0358 34.0051 26.1848 34.0051C24.3338 34.0051 22.8333 35.5057 22.8333 37.3567C22.8333 39.2077 24.3338 40.7083 26.1848 40.7083ZM40.7083 26.1848C40.7083 28.0358 39.2077 29.5364 37.3567 29.5364C35.5057 29.5364 34.0051 28.0358 34.0051 26.1848C34.0051 24.3338 35.5057 22.8333 37.3567 22.8333C39.2077 22.8333 40.7083 24.3338 40.7083 26.1848ZM37.3567 40.7083C39.2077 40.7083 40.7083 39.2077 40.7083 37.3567C40.7083 35.5057 39.2077 34.0051 37.3567 34.0051C35.5057 34.0051 34.0051 35.5057 34.0051 37.3567C34.0051 39.2077 35.5057 40.7083 37.3567 40.7083Z" fill="white"/>
</svg>
