<svg width="10" height="6" viewBox="0 0 10 6" fill="none" xmlns="http://www.w3.org/2000/svg">
<path d="M1.06258 2.41671C0.820957 2.41671 0.625082 2.61258 0.625082 2.85421C0.625082 3.0757 0.789672 3.25874 1.00322 3.28771L1.06258 3.29171H9.22925C9.47087 3.29171 9.66675 3.09583 9.66675 2.85421C9.66675 2.63272 9.50216 2.44967 9.28861 2.4207L9.22925 2.41671H1.06258Z" fill="#212121"/>
<path d="M9.53861 2.54485C9.38328 2.38953 9.14023 2.37541 8.96896 2.50249L8.91989 2.54485L6.58656 4.87818C6.4157 5.04904 6.4157 5.32605 6.58656 5.4969C6.74188 5.65222 6.98493 5.66634 7.1562 5.53926L7.20527 5.4969L9.53861 3.16357C9.70946 2.99271 9.70946 2.7157 9.53861 2.54485Z" fill="#212121"/>
<path d="M7.20527 0.211515C7.03442 0.0406604 6.75741 0.0406604 6.58656 0.211515C6.43123 0.366837 6.41711 0.609891 6.54419 0.781164L6.58656 0.830233L8.91989 3.16357C9.09074 3.33442 9.36775 3.33442 9.53861 3.16357C9.69393 3.00824 9.70805 2.76519 9.58097 2.59392L9.53861 2.54485L7.20527 0.211515Z" fill="#212121"/>
</svg>
